<?xml version="1.0" encoding="UTF-8" standalone="no"?>
<svg
   xmlns:dc="http://purl.org/dc/elements/1.1/"
   xmlns:cc="http://creativecommons.org/ns#"
   xmlns:rdf="http://www.w3.org/1999/02/22-rdf-syntax-ns#"
   xmlns:svg="http://www.w3.org/2000/svg"
   xmlns="http://www.w3.org/2000/svg"
   id="svg4690"
   version="1.1"
   viewBox="0 0 33.866666 33.866668"
   height="128"
   width="128">
  <defs
     id="defs4684" />
  <metadata
     id="metadata4687">
    <rdf:RDF>
      <cc:Work
         rdf:about="">
        <dc:format>image/svg+xml</dc:format>
        <dc:type
           rdf:resource="http://purl.org/dc/dcmitype/StillImage" />
        <dc:title></dc:title>
      </cc:Work>
    </rdf:RDF>
  </metadata>
  <g
     transform="translate(0,-263.13332)"
     id="layer1">
    <path
       style="color:#000000;font-style:normal;font-variant:normal;font-weight:normal;font-stretch:normal;font-size:medium;line-height:normal;font-family:sans-serif;text-indent:0;text-align:start;text-decoration:none;text-decoration-line:none;text-decoration-style:solid;text-decoration-color:#000000;letter-spacing:normal;word-spacing:normal;text-transform:none;writing-mode:lr-tb;direction:ltr;baseline-shift:baseline;text-anchor:start;white-space:normal;clip-rule:nonzero;display:inline;overflow:visible;visibility:visible;opacity:1;isolation:auto;mix-blend-mode:normal;color-interpolation:sRGB;color-interpolation-filters:linearRGB;solid-color:#000000;solid-opacity:1;fill:#f0f5fa;fill-opacity:0.56944442;fill-rule:evenodd;stroke:none;stroke-width:1.84811521;stroke-linecap:round;stroke-linejoin:miter;stroke-miterlimit:4;stroke-dasharray:none;stroke-dashoffset:0;stroke-opacity:1;color-rendering:auto;image-rendering:auto;shape-rendering:auto;text-rendering:auto;enable-background:accumulate"
       d="m 16.933348,265.3551 c -4.454332,0 -8.3944839,2.29064 -10.8885739,5.81808 L -1.0000001e-7,270.95798 3.2919871,278.45461 c -0.472672,2.93432 0.480208,6.42848 1.617683,9.26464 0.575775,1.43616 1.206458,2.68856 1.793959,3.604 0.29392,0.4584 0.567096,0.82912 0.88375,1.13496 0.158536,0.1544 0.324016,0.2944 0.584584,0.416 0.26052,0.1184 0.72204,0.2096 1.14736,0 0.16256,-0.08 0.315424,-0.1712 0.4612,-0.2696 2.0784599,1.37648 4.5259819,2.1736 7.1528289,2.1736 2.626759,0 5.074534,-0.7968 7.153038,-2.1736 0.14608,0.0992 0.29856,0.1864 0.461199,0.2696 0.42528,0.2096 0.886608,0.1184 1.147384,0 0.26048,-0.1184 0.42608,-0.2632 0.58448,-0.416 0.31672,-0.3064 0.58944,-0.6768 0.883328,-1.13496 0.58744,-0.91544 1.218607,-2.16784 1.794447,-3.604 1.137448,-2.83616 2.090352,-6.33032 1.61768,-9.26464 l 3.291759,-7.49663 -6.044782,0.2152 c -2.494104,-3.52744 -6.434303,-5.81808 -10.888537,-5.81808 z m 0,1.6732 c 3.491231,0 6.645551,1.62056 8.844198,4.21792 l -2.476839,0.0912 c -2.820464,0 -5.258839,1.68232 -6.367359,4.09424 -1.108687,-2.41192 -3.547298,-4.09424 -6.36767,-4.09424 l -2.4765849,-0.0912 c 2.1985809,-2.59736 5.3529429,-4.21792 8.8442549,-4.21792 z m -6.36767,6.06488 c 2.907324,0 5.245391,2.33792 5.245391,5.24535 0,2.9072 -2.338067,5.24528 -5.245391,5.24528 -2.9073899,0 -5.2451419,-2.33808 -5.2451419,-5.24528 0,-2.90743 2.337752,-5.24535 5.2451419,-5.24535 z m 12.735029,0 c 2.907407,0 5.245374,2.33792 5.245374,5.24535 0,2.9072 -2.337967,5.24528 -5.245374,5.24528 -2.907496,0 -5.245439,-2.33808 -5.245439,-5.24528 0,-2.90743 2.337943,-5.24535 5.245439,-5.24535 z m -12.768134,1.90648 c -1.5043569,0 -2.8141719,1.0228 -3.2023469,2.47144 -0.477136,1.78079 0.584896,3.61231 2.371534,4.09111 1.7869529,0.4784 3.6220819,-0.5768 4.0993689,-2.35712 0.477095,-1.78079 -0.584496,-3.61231 -2.37126,-4.09127 -0.2924,-0.08 -0.594424,-0.1168 -0.897296,-0.1144 z m 12.73503,0 c -1.5044,0 -2.8142,1.0228 -3.202455,2.47144 -0.47704,1.78079 0.584959,3.61231 2.371999,4.09111 1.786551,0.4784 3.621679,-0.5768 4.098943,-2.35712 0.47712,-1.78079 -0.5848,-3.61255 -2.371536,-4.09127 -0.2924,-0.08 -0.594319,-0.1168 -0.896951,-0.1144 z m -12.701925,1.61904 a 1.7197548,1.7197548 0 0 1 1.719854,1.71983 1.7197548,1.7197548 0 0 1 -1.719854,1.71976 1.7197548,1.7197548 0 0 1 -1.7198979,-1.71976 1.7197548,1.7197548 0 0 1 1.7198979,-1.71983 z m 12.735029,0 a 1.7197548,1.7197548 0 0 1 1.719807,1.71983 1.7197548,1.7197548 0 0 1 -1.719807,1.71976 1.7197548,1.7197548 0 0 1 -1.71988,-1.71976 1.7197548,1.7197548 0 0 1 1.71988,-1.71983 z m -6.367359,4.62959 c 0.39736,0.86464 0.968168,1.6328 1.663488,2.26632 l -1.663823,1.99944 -1.662982,-1.99944 c 0.695344,-0.6336 1.265806,-1.40168 1.663317,-2.26632 z m 11.124221,2.22056 c -0.28168,1.1828 -0.66664,2.3756 -1.097655,3.45024 -0.53336,1.32968 -1.12768,2.4936 -1.608032,3.24224 -0.13424,0.2096 -0.21128,0.2848 -0.31656,0.4184 -0.28416,-0.26 -0.51984,-0.564 -0.68328,-0.97688 -0.24704,-0.6248 -0.35488,-1.42152 -0.36192,-2.20064 -0.0064,-0.80648 0.0868,-1.56232 0.17928,-2.11456 1.491272,-0.1864 2.838128,-0.84352 3.888103,-1.81848 z m -22.2454799,0 c 1.049549,0.97304 2.395622,1.62904 3.885332,1.81488 0.09271,0.552 0.18648,1.30784 0.179496,2.11432 -0.0063,0.7792 -0.11536,1.57568 -0.362248,2.20072 -0.163408,0.4136 -0.39952,0.7184 -0.683448,0.97728 -0.105408,-0.1352 -0.182456,-0.2096 -0.316544,-0.4184 -0.480336,-0.7488 -1.074462,-1.9124 -1.607798,-3.24224 -0.430632,-1.07336 -0.813012,-2.26504 -1.094613,-3.44664 z m 8.0500419,1.03888 3.070882,3.69128 0.839063,-1.008 2.232136,-2.68328 c 0.616879,0.3312 1.287967,0.5744 1.996711,0.7088 -0.0912,0.6128 -0.16976,1.376 -0.16256,2.20024 0.0088,0.95104 0.12384,1.98824 0.51312,2.97264 0.13568,0.344 0.31328,0.6824 0.53032,1.00208 -1.75628,1.0884 -3.787671,1.70984 -5.94851,1.70984 -2.161009,0 -4.192035,-0.6216 -5.948296,-1.71048 0.216912,-0.3192 0.394416,-0.6576 0.530311,-1.00144 0.389384,-0.9844 0.504296,-2.0216 0.512616,-2.97264 0.0064,-0.82424 -0.07176,-1.58752 -0.162768,-2.20024 0.708808,-0.1336 1.379834,-0.3776 1.996821,-0.7088 z"
       id="path4675" />
  </g>
</svg>
